# xmcd
#
# Track frame offsets:
#	150
#	14945
#	29420
#	39675
#	59647
#	74070
#	86085
#	98105
#	109395
#
# Disc length: 1665 seconds
#
# Revision: 1
# Processed by: cddbd v1.5.2PL0 Copyright (c) Steve Scherf et al.
# Submitted via: audiograbber 1.83.01
#
DISCID=8b067f09
DTITLE=Artist Robinson - Last Stop Bakersfield
DYEAR=2008
DGENRE=Country
TTITLE0=Going To Texas
TTITLE1=Chasing Willie
TTITLE2=Country Soul
TTITLE3=Last Ride
TTITLE4=No One To Blame
TTITLE5=23 Degrees
TTITLE6=Fiddle Around
TTITLE7=Come On By
TTITLE8=Canada Dry
EXTD=
EXTT0=
EXTT1=
EXTT2=
EXTT3=
EXTT4=
EXTT5=
EXTT6=
EXTT7=
EXTT8=
PLAYORDER=
